<svg width="70" height="67" viewBox="0 0 70 67" fill="none" xmlns="http://www.w3.org/2000/svg">
<g clip-path="url(#clip0_202_82)">
<path fill-rule="evenodd" clip-rule="evenodd" d="M1.64706 0C0.737413 0 0 0.739063 0 1.65075V15.1053C0.471481 14.9638 0.995246 14.8931 1.57129 14.8931C2.21256 14.8931 2.83624 14.9855 3.44235 15.1704C4.05726 15.3553 4.5975 15.615 5.06306 15.9495L4.04847 17.4682C3.32815 16.9664 2.53318 16.7155 1.66353 16.7155C1.12769 16.7155 0.697256 16.8035 0.372235 16.9796C0.202727 17.074 0.0786485 17.1861 0 17.3159V18.079C0.0680785 18.1913 0.170196 18.287 0.306353 18.3662C0.58745 18.5247 1.05302 18.6436 1.70306 18.7228C2.95044 18.8637 3.88156 19.1762 4.49647 19.6604C5.11138 20.1358 5.41882 20.7918 5.41882 21.6281C5.41882 22.2092 5.25632 22.7242 4.93129 23.1732C4.60627 23.6134 4.1495 23.9567 3.56094 24.2033C2.97239 24.441 2.296 24.5599 1.53176 24.5599C1.00854 24.5599 0.497947 24.505 0 24.3952V28.3104H2.67812C3.67074 28.3104 4.45256 28.5305 5.02353 28.9707C5.5945 29.4108 5.88 30.0096 5.88 30.7667C5.88 31.2157 5.77459 31.6119 5.56377 31.9552C5.36173 32.2897 5.07624 32.5452 4.70729 32.7212C5.15529 32.9149 5.51106 33.2141 5.77459 33.6192C6.03812 34.0154 6.16988 34.4644 6.16988 34.9662C6.16988 35.7761 5.85803 36.41 5.23435 36.8678C4.61944 37.3257 3.76738 37.5546 2.67812 37.5546H0V64.3792C0 65.2909 0.737413 66.03 1.64706 66.03H68.3529C69.2625 66.03 70 65.2909 70 64.3792V1.65075C70 0.739065 69.2625 0 68.3529 0H1.64706ZM0 22.4083C0.472782 22.5662 0.978977 22.645 1.51859 22.645C2.06321 22.645 2.49365 22.5525 2.80988 22.3677C3.13491 22.1828 3.29741 21.9319 3.29741 21.6149C3.29741 21.3155 3.14809 21.0823 2.84941 20.915C2.55074 20.7477 2.07639 20.6289 1.42635 20.5584C0.89006 20.4983 0.414608 20.4101 0 20.2938V22.4083ZM8.13894 15.1044H5.78035L9.02176 24.3486H11.0246L11.9074 21.7734L12.9352 18.67L14.8589 24.3486H16.9013L20.1295 15.1044H17.7709L16.6509 18.7888L15.8472 21.4564L13.6994 15.1044H12.1446L10.0495 21.4168L9.29847 18.7888L8.13894 15.1044ZM25.6268 15.1044H23.3209L19.1835 24.3486H21.4894L22.1746 22.6846H26.7204L27.4056 24.3486H29.7379L25.6268 15.1044ZM24.4673 17.1777L25.9562 20.8226H22.952L24.4673 17.1777ZM31.7837 24.2165C32.4866 24.4453 33.2156 24.5599 33.9712 24.5599C34.7354 24.5599 35.4118 24.441 36.0004 24.2033C36.5888 23.9567 37.0457 23.6134 37.3705 23.1732C37.6956 22.7242 37.8583 22.2092 37.8583 21.6281C37.8583 20.7918 37.5507 20.1358 36.9357 19.6604C36.3209 19.1762 35.3897 18.8637 34.1425 18.7228C33.4923 18.6436 33.0268 18.5247 32.7458 18.3662C32.4734 18.2078 32.3371 17.9833 32.3371 17.6927C32.3371 17.3934 32.4954 17.1557 32.8115 16.9796C33.1366 16.8035 33.5671 16.7155 34.103 16.7155C34.9726 16.7155 35.7675 16.9664 36.4879 17.4682L37.5025 15.9495C37.0368 15.615 36.4966 15.3553 35.8818 15.1704C35.2757 14.9855 34.6519 14.8931 34.0107 14.8931C33.264 14.8931 32.6052 15.0119 32.0341 15.2496C31.4631 15.4873 31.0197 15.8219 30.7032 16.2533C30.387 16.6847 30.2291 17.1821 30.2291 17.7456C30.2291 18.5819 30.5188 19.2246 31.0987 19.6736C31.6871 20.1226 32.6095 20.4176 33.8658 20.5584C34.5158 20.6289 34.9901 20.7477 35.2886 20.915C35.5874 21.0823 35.7369 21.3155 35.7369 21.6149C35.7369 21.9319 35.5742 22.1828 35.2491 22.3677C34.9329 22.5525 34.5026 22.645 33.958 22.645C32.8687 22.645 31.9155 22.3237 31.0987 21.6809L29.9787 23.2525C30.4881 23.6662 31.0899 23.9877 31.7837 24.2165ZM46.1765 15.1044H38.3892V16.9928H41.1958V24.3486H43.3568V16.9928H46.1765V15.1044ZM49.5374 15.1044H47.3764V24.3486H49.5374V15.1044ZM53.7061 24.3486V20.6773L56.9477 24.3486H59.7541L55.5112 19.634L59.3985 15.1044H56.7366L53.7061 18.7228V15.1044H51.5583V24.3486H53.7061ZM3.71906 35.4548C3.50824 35.6397 3.20956 35.7321 2.82306 35.7321H0.240471V33.6456H2.82306C3.20956 33.6456 3.50824 33.738 3.71906 33.9229C3.93867 34.0989 4.04847 34.3544 4.04847 34.6889C4.04847 35.0147 3.93867 35.2699 3.71906 35.4548ZM3.50824 31.6911C3.32377 31.8496 3.06024 31.9288 2.71765 31.9288H0.240471V30.0932H2.71765C3.05144 30.0932 3.31059 30.1767 3.49506 30.3441C3.68832 30.5026 3.78494 30.7271 3.78494 31.0176C3.78494 31.3081 3.69271 31.5326 3.50824 31.6911ZM9.45947 37.1848C10.2149 37.581 11.089 37.7791 12.0816 37.7791C13.0742 37.7791 13.9439 37.581 14.6905 37.1848C15.446 36.7797 16.0257 36.2119 16.4298 35.4812C16.8427 34.7506 17.0491 33.9008 17.0491 32.9325C17.0491 31.9641 16.8427 31.1144 16.4298 30.3837C16.0257 29.653 15.446 29.0895 14.6905 28.6933C13.9439 28.2883 13.0742 28.0859 12.0816 28.0859C11.089 28.0859 10.2149 28.2883 9.45947 28.6933C8.7128 29.0895 8.13303 29.653 7.72018 30.3837C7.31609 31.1144 7.11406 31.9641 7.11406 32.9325C7.11406 33.9008 7.31609 34.7506 7.72018 35.4812C8.13303 36.2119 8.7128 36.7797 9.45947 37.1848ZM9.63076 34.4644C9.40238 34.0242 9.28818 33.5135 9.28818 32.9325C9.28818 32.3514 9.40238 31.8407 9.63076 31.4006C9.86794 30.9604 10.1974 30.6214 10.619 30.3837C11.0406 30.1371 11.5282 30.0139 12.0816 30.0139C12.635 30.0139 13.1225 30.1371 13.5442 30.3837C13.9746 30.6214 14.304 30.9604 14.5324 31.4006C14.7696 31.8407 14.8882 32.3514 14.8882 32.9325C14.8882 33.5135 14.7696 34.0242 14.5324 34.4644C14.304 34.9045 13.9746 35.2478 13.5442 35.4944C13.1225 35.7321 12.635 35.851 12.0816 35.851C11.5282 35.851 11.0406 35.7321 10.619 35.4944C10.1974 35.2478 9.86794 34.9045 9.63076 34.4644ZM19.7526 37.4225C20.4553 37.6513 21.1845 37.7659 21.9399 37.7659C22.7041 37.7659 23.3804 37.647 23.969 37.4093C24.5576 37.1627 25.0143 36.8194 25.3394 36.3792C25.6645 35.9302 25.8269 35.4152 25.8269 34.8341C25.8269 33.9978 25.5195 33.3418 24.9046 32.8664C24.2896 32.3821 23.3586 32.0697 22.1111 31.9288C21.4612 31.8496 20.9955 31.7307 20.7144 31.5722C20.4421 31.4138 20.306 31.1893 20.306 30.8987C20.306 30.5993 20.4641 30.3616 20.7803 30.1856C21.1054 30.0096 21.5357 29.9215 22.0716 29.9215C22.9413 29.9215 23.7362 30.1724 24.4566 30.6742L25.4711 29.1555C25.0056 28.8211 24.4654 28.5613 23.8504 28.3764C23.2443 28.1915 22.6207 28.0991 21.9794 28.0991C21.2326 28.0991 20.5739 28.2179 20.0029 28.4556C19.4319 28.6933 18.9883 29.0278 18.6721 29.4593C18.3559 29.8907 18.1977 30.388 18.1977 30.9516C18.1977 31.7879 18.4876 32.4306 19.0674 32.8796C19.6559 33.3286 20.5783 33.6235 21.8344 33.7644C22.4844 33.8348 22.9588 33.9537 23.2575 34.121C23.5562 34.2883 23.7055 34.5215 23.7055 34.8209C23.7055 35.1379 23.5431 35.3888 23.218 35.5737C22.9017 35.7585 22.4712 35.851 21.9267 35.851C20.8374 35.851 19.8843 35.5297 19.0674 34.887L17.9474 36.4585C18.4569 36.8722 19.0586 37.1937 19.7526 37.4225ZM34.2491 28.3104H27.2127V37.5546H34.3941V35.7321H29.308V33.738H33.9856V31.9948H29.308V30.1196H34.2491V28.3104Z" fill="#212529"/>
<path d="M34.5143 59.0869C34.2112 59.0869 33.9411 59.0166 33.7039 58.8756C33.4668 58.7304 33.28 58.53 33.1439 58.2748C33.0122 58.015 32.9463 57.7179 32.9463 57.3834C32.9463 57.0489 33.0122 56.7538 33.1439 56.4986C33.28 56.2388 33.4668 56.0386 33.7039 55.8977C33.9411 55.7524 34.2112 55.6798 34.5143 55.6798C34.7338 55.6798 34.9359 55.7171 35.1204 55.792C35.3092 55.8624 35.4673 55.9615 35.5948 56.0892V54.3922H36.471V59.0143H35.687L35.6738 58.5785C35.5507 58.737 35.3883 58.8624 35.1863 58.9549C34.9841 59.043 34.7601 59.0869 34.5143 59.0869ZM33.8159 57.3834C33.8159 57.6564 33.8993 57.8809 34.0663 58.0569C34.2331 58.2329 34.4461 58.321 34.7053 58.321C34.9689 58.321 35.184 58.2329 35.351 58.0569C35.5178 57.8809 35.6013 57.6564 35.6013 57.3834C35.6013 57.1104 35.5178 56.8859 35.351 56.7099C35.184 56.5339 34.9689 56.4457 34.7053 56.4457C34.4461 56.4457 34.2331 56.5339 34.0663 56.7099C33.8993 56.8859 33.8159 57.1104 33.8159 57.3834ZM38.914 59.1001C38.5494 59.1001 38.2309 59.0298 37.9587 58.8889C37.6906 58.7479 37.4821 58.5498 37.3328 58.2946C37.1879 58.0348 37.1154 57.7333 37.1154 57.39C37.1154 57.0555 37.1856 56.7604 37.326 56.5052C37.4712 56.2454 37.6731 56.0452 37.9323 55.9043C38.1913 55.759 38.4901 55.6864 38.8281 55.6864C39.3597 55.6864 39.7771 55.836 40.0801 56.1354C40.3832 56.4303 40.5347 56.8353 40.5347 57.3504C40.5347 57.4517 40.5281 57.5594 40.5149 57.6739H38.0048C38.0355 57.8809 38.1343 58.0459 38.3013 58.1691C38.4726 58.2923 38.6877 58.354 38.9469 58.354C39.1226 58.354 39.2916 58.3276 39.4542 58.2748C39.6167 58.2176 39.7507 58.1404 39.8561 58.0437L40.3436 58.5455C40.1723 58.7215 39.9615 58.8581 39.7112 58.9549C39.4608 59.0517 39.195 59.1001 38.914 59.1001ZM39.6914 57.0928C39.6737 56.8815 39.5903 56.7142 39.4411 56.591C39.2916 56.4678 39.0962 56.4061 38.8547 56.4061C38.6218 56.4061 38.4308 56.4678 38.2815 56.591C38.1366 56.7099 38.0487 56.8772 38.018 57.0928H39.6914ZM40.7272 55.7524H41.6825L42.1041 56.8089L42.5785 58.0965L43.0463 56.8089L43.4679 55.7524H44.4034L43.0265 59.0143H42.1107L40.7272 55.7524ZM46.3643 59.1001C45.9996 59.1001 45.6813 59.0298 45.409 58.8889C45.1411 58.7479 44.9323 58.5498 44.7831 58.2946C44.6381 58.0348 44.5657 57.7333 44.5657 57.39C44.5657 57.0555 44.6359 56.7604 44.7765 56.5052C44.9214 56.2454 45.1234 56.0452 45.3826 55.9043C45.6418 55.759 45.9403 55.6864 46.2786 55.6864C46.81 55.6864 47.2273 55.836 47.5304 56.1354C47.8334 56.4303 47.985 56.8353 47.985 57.3504C47.985 57.4517 47.9784 57.5594 47.9652 57.6739H45.4551C45.4858 57.8809 45.5846 58.0459 45.7516 58.1691C45.9228 58.2923 46.138 58.354 46.3972 58.354C46.5728 58.354 46.7421 58.3276 46.9045 58.2748C47.0669 58.2176 47.201 58.1404 47.3064 58.0437L47.7939 58.5455C47.6226 58.7215 47.4118 58.8581 47.1614 58.9549C46.9111 59.0517 46.6453 59.1001 46.3643 59.1001ZM47.1417 57.0928C47.1242 56.8815 47.0406 56.7142 46.8913 56.591C46.7421 56.4678 46.5465 56.4061 46.305 56.4061C46.0721 56.4061 45.8811 56.4678 45.7318 56.591C45.5868 56.7099 45.4989 56.8772 45.4683 57.0928H47.1417ZM48.6043 54.3922H49.4805V59.0143H48.6043V54.3922ZM51.8836 59.0869C51.5321 59.0869 51.2225 59.0143 50.9546 58.869C50.6911 58.7238 50.4868 58.5234 50.3419 58.2682C50.197 58.0084 50.1245 57.7135 50.1245 57.3834C50.1245 57.0532 50.197 56.7604 50.3419 56.5052C50.4868 56.2454 50.6911 56.043 50.9546 55.8977C51.2225 55.7524 51.5321 55.6798 51.8836 55.6798C52.235 55.6798 52.5424 55.7524 52.8059 55.8977C53.0738 56.043 53.2803 56.2454 53.4252 56.5052C53.5701 56.7604 53.6426 57.0532 53.6426 57.3834C53.6426 57.7135 53.5701 58.0084 53.4252 58.2682C53.2803 58.5234 53.0738 58.7238 52.8059 58.869C52.5424 59.0143 52.235 59.0869 51.8836 59.0869ZM50.9941 57.3834C50.9941 57.6518 51.0755 57.8763 51.2379 58.0569C51.4049 58.2329 51.62 58.321 51.8836 58.321C52.1471 58.321 52.3602 58.2329 52.5226 58.0569C52.6896 57.8763 52.773 57.6518 52.773 57.3834C52.773 57.1149 52.6896 56.8925 52.5226 56.7165C52.3602 56.5359 52.1471 56.4457 51.8836 56.4457C51.62 56.4457 51.4049 56.5359 51.2379 56.7165C51.0755 56.8925 50.9941 57.1149 50.9941 57.3834ZM54.2854 55.7524H55.043L55.1023 56.142C55.2341 55.9924 55.3965 55.8779 55.5898 55.7986C55.7875 55.7194 56.0006 55.6798 56.2289 55.6798C56.5363 55.6798 56.8087 55.7524 57.0458 55.8977C57.2873 56.0386 57.4741 56.2388 57.6058 56.4986C57.7419 56.7584 57.8101 57.0532 57.8101 57.3834C57.8101 57.7135 57.7419 58.0084 57.6058 58.2682C57.4741 58.528 57.2873 58.7304 57.0458 58.8756C56.8087 59.0166 56.5363 59.0869 56.2289 59.0869C56.0138 59.0869 55.8138 59.0517 55.6294 58.9813C55.4492 58.9109 55.2934 58.8096 55.1616 58.6776V60.4736H54.2854V55.7524ZM55.155 57.3834C55.155 57.6564 55.2384 57.8809 55.4054 58.0569C55.5723 58.2329 55.7875 58.321 56.051 58.321C56.3102 58.321 56.5231 58.2329 56.6901 58.0569C56.8571 57.8809 56.9404 57.6564 56.9404 57.3834C56.9404 57.1104 56.8571 56.8859 56.6901 56.7099C56.5231 56.5339 56.3102 56.4457 56.051 56.4457C55.7875 56.4457 55.5723 56.5339 55.4054 56.7099C55.2384 56.8859 55.155 57.1104 55.155 57.3834ZM60.0554 59.1001C59.6908 59.1001 59.3725 59.0298 59.1001 58.8889C58.8323 58.7479 58.6235 58.5498 58.4743 58.2946C58.3293 58.0348 58.2569 57.7333 58.2569 57.39C58.2569 57.0555 58.3271 56.7604 58.4677 56.5052C58.6126 56.2454 58.8146 56.0452 59.0738 55.9043C59.333 55.759 59.6315 55.6864 59.9698 55.6864C60.5012 55.6864 60.9185 55.836 61.2216 56.1354C61.5246 56.4303 61.6761 56.8353 61.6761 57.3504C61.6761 57.4517 61.6696 57.5594 61.6564 57.6739H59.1463C59.1769 57.8809 59.2758 58.0459 59.4427 58.1691C59.614 58.2923 59.8292 58.354 60.0884 58.354C60.264 58.354 60.4332 58.3276 60.5957 58.2748C60.7581 58.2176 60.8921 58.1404 60.9976 58.0437L61.4851 58.5455C61.3138 58.7215 61.103 58.8581 60.8526 58.9549C60.6023 59.0517 60.3365 59.1001 60.0554 59.1001ZM60.8328 57.0928C60.8153 56.8815 60.7318 56.7142 60.5825 56.591C60.4332 56.4678 60.2376 56.4061 59.9961 56.4061C59.7633 56.4061 59.5722 56.4678 59.423 56.591C59.278 56.7099 59.1901 56.8772 59.1594 57.0928H60.8328ZM62.2954 55.7524H63.0531L63.1256 56.1618C63.3627 55.8449 63.6681 55.6864 64.0413 55.6864C64.1994 55.6864 64.351 55.7128 64.4959 55.7656C64.6454 55.8141 64.7706 55.8868 64.8714 55.9835L64.4893 56.6636C64.3226 56.5491 64.1467 56.492 63.9623 56.492C63.7208 56.492 63.5274 56.5735 63.3825 56.7363C63.2421 56.8991 63.1717 57.1281 63.1717 57.423V59.0143H62.2954V55.7524Z" fill="white"/>
</g>
<defs>
<clipPath id="clip0_202_82">
<rect width="70" height="66.03" fill="white"/>
</clipPath>
</defs>
</svg>
